HIERARCHY
ROOT Hips
{
	OFFSET 0.000000 0.000000 0.000000
	CHANNELS 6 Xposition Yposition Zposition Zrotation Yrotation Xrotation 
	JOINT LHipJoint
	{
		OFFSET 0.000000 0.000000 0.000000
		CHANNELS 3 Zrotation Yrotation Xrotation
		JOINT LeftUpLeg
		{
			OFFSET 1.363060 -1.794630 0.839290
			CHANNELS 3 Zrotation Yrotation Xrotation
			JOINT LeftLeg
			{
				OFFSET 2.448110 -6.726130 0.000000
				CHANNELS 3 Zrotation Yrotation Xrotation
				JOINT LeftFoot
				{
					OFFSET 2.562200 -7.039590 0.000000
					CHANNELS 3 Zrotation Yrotation Xrotation
					JOINT LeftToeBase
					{
						OFFSET 0.157640 -0.433110 2.322550
						CHANNELS 3 Zrotation Yrotation Xrotation
						End Site
						{
							OFFSET 0.000000 0.000000 0.000000
						}
					}
				}
			}
		}
	}
	JOINT RHipJoint
	{
		OFFSET 0.000000 0.000000 0.000000
		CHANNELS 3 Zrotation Yrotation Xrotation
		JOINT RightUpLeg
		{
			OFFSET -1.305520 -1.794630 0.839290
			CHANNELS 3 Zrotation Yrotation Xrotation
			JOINT RightLeg
			{
				OFFSET -2.542530 -6.985550 0.000000
				CHANNELS 3 Zrotation Yrotation Xrotation
				JOINT RightFoot
				{
					OFFSET -2.568260 -7.056230 0.000000
					CHANNELS 3 Zrotation Yrotation Xrotation
					JOINT RightToeBase
					{
						OFFSET -0.164730 -0.452590 2.363150
						CHANNELS 3 Zrotation Yrotation Xrotation
						End Site
						{
							OFFSET 0.000000 0.000000 0.000000
						}
					}
				}
			}
		}
	}
}
MOTION
Frames: 19
Frame Time: 0.008333
-19.558074 17.178874 -0.693823 50.490186 87.016229 60.729255 -8.885101 1.897595 3.070712 -17.851377 1.487875 -29.746984 -2.264656 0.340475 26.951942 2.244456 10.542022 -12.089735 -0.765400 -0.000000 -22.768901 11.441130 -4.397410 0.288502 0.481056 -9.507668 0.337718 -0.685464 -2.527721 36.613714 -2.300874 -12.599618 16.212636 -4.848000 -0.000000 -58.606200
-19.379305 17.107516 -0.713639 51.942419 87.328359 61.989827 -8.944117 1.891839 3.086035 -17.588933 1.228325 -29.331326 -2.211969 0.400468 28.186549 2.340736 10.665935 -13.586498 -1.122300 -0.000000 -20.771300 11.450464 -4.278348 0.130371 0.430478 -9.919202 -0.806163 -0.754633 -2.657405 39.745269 -2.573619 -14.647764 13.216866 -5.085800 0.000001 -55.511400
-19.202013 17.026410 -0.732712 53.875053 87.618512 63.800805 -8.994368 1.889070 3.094002 -17.401388 0.998889 -29.161242 -2.165711 0.483546 29.725323 2.457307 10.828400 -15.272801 -1.532000 0.000000 -18.923501 11.470904 -4.163993 -0.002394 0.345488 -10.300881 -2.096975 -0.805034 -2.790605 42.848679 -2.809993 -16.296648 9.907009 -4.918700 -0.000001 -52.165600
-19.026616 16.936659 -0.750339 56.639071 87.885418 66.516724 -9.030844 1.892078 3.097561 -17.287388 0.779071 -29.225244 -2.125021 0.590114 31.546995 2.591998 11.029450 -17.106448 -1.989500 0.000000 -17.306199 11.508818 -4.051376 -0.108235 0.224468 -10.648726 -3.539300 -0.837760 -2.925870 45.901532 -2.994897 -17.469786 6.390977 -4.369900 0.000000 -48.612900
-18.853420 16.839597 -0.765853 60.709331 88.122495 70.615571 -9.047207 1.905063 3.103626 -17.246112 0.530060 -29.500780 -2.087799 0.719802 33.612172 2.743968 11.279278 -19.036173 -2.489000 -0.000000 -15.947100 11.571336 -3.932506 -0.188326 0.063301 -10.965292 -5.142806 -0.855033 -3.060794 48.892445 -3.118353 -18.140656 2.783436 -3.520200 -0.000000 -45.008200
-18.682989 16.736849 -0.778694 66.370825 88.317101 76.372328 -9.042992 1.932956 3.111990 -17.272928 0.248733 -29.941355 -2.053227 0.871153 35.855500 2.907144 11.567446 -20.999750 -3.018700 0.000000 -14.893300 11.659742 -3.798416 -0.247457 -0.139037 -11.252742 -6.892771 -0.858425 -3.193212 51.800134 -3.176577 -18.325393 -0.814254 -2.484400 -0.000000 -41.408201
-18.515783 16.630229 -0.788472 73.659439 88.447862 83.812898 -9.021934 1.979384 3.124242 -17.363479 -0.075882 -30.495168 -2.020046 1.041719 38.202189 3.076318 11.888891 -22.938839 -3.566600 0.000000 -14.141000 11.770008 -3.638582 -0.292341 -0.384986 -11.515344 -8.777068 -0.850686 -3.321402 54.609768 -3.172720 -18.076815 -4.301443 -1.390100 0.000000 -37.958399
-18.352353 16.521808 -0.794989 82.016631 88.491900 92.362727 -8.994907 2.042759 3.138495 -17.511378 -0.438849 -31.100971 -1.987309 1.226713 40.571129 3.244486 12.230000 -24.801437 -4.117901 0.000000 -13.676400 11.890278 -3.447351 -0.330814 -0.674908 -11.757964 -10.774231 -0.834626 -3.446034 57.303016 -3.116198 -17.476594 -7.586700 -0.352400 -0.000000 -34.800301
-18.192898 16.413938 -0.798336 90.401223 88.436799 100.958085 -8.975650 2.114021 3.148728 -17.704479 -0.823258 -31.688509 -1.954191 1.417840 42.881035 3.404180 12.572012 -26.547555 -4.657500 0.000001 -13.459700 12.005242 -3.227153 -0.370913 -1.003367 -11.984717 -12.852122 -0.812970 -3.571056 59.856720 -3.021148 -16.626076 -10.596593 0.546800 0.000000 -32.036900
-18.037641 16.308718 -0.798905 97.838653 88.290080 108.605114 -8.970808 2.182167 3.147404 -17.927046 -1.206298 -32.199086 -1.920446 1.605383 45.066491 3.549416 12.894850 -28.153592 -5.172000 0.000000 -13.456700 12.106453 -2.984263 -0.418103 -1.357438 -12.201716 -14.984376 -0.789626 -3.701461 62.251334 -2.904784 -15.640077 -13.277276 1.266200 0.000000 -29.766500
-17.886532 16.208524 -0.797097 103.855994 88.070752 114.808548 -8.981516 2.239853 3.127766 -18.161480 -1.563983 -32.575365 -1.887409 1.780074 47.066282 3.676933 13.185778 -29.608337 -5.651201 0.000000 -13.608600 12.190259 -2.724446 -0.475526 -1.722647 -12.412677 -17.138425 -0.769393 -3.840013 64.466401 -2.784854 -14.632740 -15.607813 1.805500 0.000000 -27.984900
-17.739174 16.115311 -0.793723 108.459779 87.811291 119.556149 -9.007719 2.283429 3.080784 -18.383632 -1.861917 -32.776281 -1.857724 1.935707 48.837619 3.784900 13.433683 -30.915808 -6.088999 -0.000000 -13.873700 12.254150 -2.451655 -0.545487 -2.074090 -12.614323 -19.280758 -0.756615 -3.986394 66.483457 -2.678782 -13.713634 -17.595252 2.195000 0.000000 -26.641100
-17.595151 16.030940 -0.789466 111.901769 87.539542 123.085639 -9.048876 2.313131 3.002317 -18.575412 -2.075634 -32.773171 -1.834393 2.068085 50.345177 3.874414 13.639262 -32.085474 -6.484300 0.000000 -14.208600 12.295534 -2.168759 -0.627598 -2.392128 -12.803725 -21.383524 -0.753489 -4.137344 68.286469 -2.601041 -12.971159 -19.273958 2.481599 -0.000000 -25.612500
-17.453519 15.956882 -0.785027 114.463173 87.279354 125.670979 -9.104632 2.330581 2.890876 -18.721923 -2.187557 -32.551004 -1.819983 2.174714 51.564902 3.947954 13.808868 -33.129714 -6.839900 -0.000000 -14.584400 12.311533 -1.879138 -0.719973 -2.657464 -12.976870 -23.424789 -0.759115 -4.288159 69.860607 -2.562167 -12.465896 -20.695478 2.715301 0.000000 -24.745900
-17.312811 15.894357 -0.780966 116.380959 87.049659 127.547449 -9.174483 2.338102 2.748642 -18.812145 -2.188634 -32.106598 -1.816214 2.254088 52.481014 4.008636 13.952009 -34.059644 -7.160200 0.000000 -14.987100 12.299517 -1.587436 -0.818876 -2.853893 -13.130872 -25.388289 -0.769540 -4.433401 71.190634 -2.567624 -12.223759 -21.917603 2.938500 -0.000000 -23.881600
-17.171804 15.844174 -0.777690 117.826685 86.863224 128.891995 -9.256445 2.338744 2.581390 -18.839855 -2.080504 -31.446651 -1.823899 2.305414 53.083839 4.059428 14.078116 -34.881504 -7.449100 -0.000000 -15.414999 12.258451 -1.298452 -0.919274 -2.968288 -13.264873 -27.266621 -0.778550 -4.567681 72.262142 -2.617601 -12.235069 -22.996777 3.180100 -0.000000 -22.879100
-17.029063 15.806857 -0.775352 118.920167 86.727334 129.836083 -9.347264 2.335959 2.398250 -18.802825 -1.873721 -30.587692 -1.843010 2.328381 53.368966 4.102524 14.193443 -35.596071 -7.708200 0.000000 -15.874500 12.188778 -1.016928 -1.014818 -2.990829 -13.380512 -29.060197 -0.778750 -4.685954 73.060422 -2.707260 -12.458516 -23.978592 3.454401 0.000000 -21.636900
-16.882698 15.782650 -0.773890 119.729510 86.644202 130.460950 -9.442329 2.333666 2.209296 -18.703344 -1.583870 -29.546524 -1.873074 2.323019 53.333361 4.138621 14.298374 -36.197547 -7.935300 -0.000000 -16.372800 12.092736 -0.746779 -1.099651 -2.917377 -13.482561 -30.771251 -0.762741 -4.784065 73.570970 -2.827430 -12.828688 -24.893366 3.760600 0.000000 -20.113400
-16.731572 15.771581 -0.773031 120.318055 86.613139 130.847917 -9.537284 2.335412 2.026635 -18.543777 -1.230827 -28.347090 -1.912999 2.289380 52.977449 4.166849 14.386194 -36.675120 -8.123300 0.000000 -16.915399 11.972735 -0.491828 -1.166751 -2.742239 -13.575759 -32.409499 -0.724213 -4.858428 73.780292 -2.966581 -13.270051 -25.751547 4.086000 0.000000 -18.338201
